<?xml version="1.0" standalone="no"?>
<!DOCTYPE svg PUBLIC "-//W3C//DTD SVG 20010904//EN"
 "http://www.w3.org/TR/2001/REC-SVG-20010904/DTD/svg10.dtd">
<svg version="1.0" xmlns="http://www.w3.org/2000/svg"
 width="512.000000pt" height="512.000000pt" viewBox="0 0 512.000000 512.000000"
 preserveAspectRatio="xMidYMid meet">
<metadata>
Created by potrace 1.14, written by Peter Selinger 2001-2017
</metadata>
<g transform="translate(0.000000,512.000000) scale(0.100000,-0.100000)"
fill="#000000" stroke="none">
<path d="M2104 4947 c-20 -52 13 -202 150 -677 145 -507 226 -817 236 -902 6
-46 17 -145 25 -220 14 -134 40 -236 72 -284 l16 -25 15 23 c14 20 32 36 64
59 9 6 -61 313 -118 518 -19 68 -33 125 -31 128 6 6 48 -132 118 -392 34 -126
63 -231 64 -233 1 -1 16 1 34 4 58 12 56 27 -36 294 -46 135 -126 369 -178
520 -212 624 -400 1163 -415 1189 -8 14 -9 14 -16 -2z"/>
<path d="M2900 4307 c0 -57 26 -181 135 -632 57 -236 106 -445 110 -462 7 -33
7 -33 66 -33 32 0 59 2 59 4 0 5 -161 543 -266 890 -76 248 -104 312 -104 233z"/>
<path d="M3516 3721 c-9 -14 8 -108 62 -336 l48 -200 32 -3 c18 -2 32 0 32 3
0 15 -154 531 -160 538 -4 5 -11 4 -14 -2z"/>
<path d="M2790 3125 c0 -4 5 -25 11 -46 8 -25 19 -39 34 -43 13 -3 30 -9 38
-12 11 -4 22 6 36 34 l20 39 -26 12 c-32 15 -113 26 -113 16z"/>
<path d="M4118 3105 c-95 -31 -159 -126 -143 -213 15 -82 71 -120 230 -157
171 -41 205 -64 205 -138 0 -52 -13 -73 -60 -97 -52 -26 -159 -27 -215 -1 -49
22 -73 48 -90 98 -11 32 -18 38 -45 41 -46 5 -53 -7 -39 -61 32 -130 190 -203
359 -167 117 25 180 93 180 196 0 112 -51 155 -235 200 -170 41 -213 72 -199
143 13 63 61 91 158 91 80 0 122 -25 154 -93 21 -44 26 -48 55 -45 31 3 32 5
31 45 -1 58 -40 115 -100 144 -61 29 -178 36 -246 14z"/>
<path d="M333 3103 c-10 -4 -13 -82 -13 -344 l0 -339 40 0 40 0 2 263 c2 147
7 262 12 262 5 0 33 -65 63 -145 30 -80 75 -198 100 -262 l45 -118 38 0 c27 0
40 5 45 18 4 9 49 126 99 260 50 133 96 244 101 245 6 1 11 -92 13 -260 l2
-263 40 0 40 0 -2 343 -3 342 -45 3 c-26 2 -52 -3 -62 -10 -14 -11 -72 -154
-193 -476 -15 -40 -32 -71 -37 -70 -6 2 -54 122 -108 266 -54 145 -104 269
-110 277 -12 14 -80 20 -107 8z"/>
<path d="M1353 3102 c-15 -9 -263 -638 -263 -665 0 -15 7 -18 41 -15 l42 3 34
95 c19 52 36 96 38 99 7 6 283 3 295 -4 5 -3 10 -10 10 -15 0 -5 14 -47 31
-94 l31 -86 44 0 c35 0 44 4 44 17 0 9 -27 85 -59 168 -33 82 -90 227 -126
320 -37 94 -72 173 -79 177 -15 10 -68 10 -83 0z m99 -242 c27 -73 47 -139 44
-147 -6 -15 -201 -19 -211 -4 -8 14 97 292 109 288 6 -2 32 -63 58 -137z"/>
<path d="M1792 3102 c-11 -7 -13 -63 -10 -268 3 -256 3 -260 29 -309 48 -94
176 -142 316 -118 85 15 138 51 172 118 26 49 26 53 29 312 l3 262 -27 7 c-58
15 -59 10 -64 -267 -5 -230 -7 -257 -25 -287 -61 -100 -259 -96 -319 8 -19 32
-21 56 -26 290 l-5 255 -30 3 c-16 1 -36 -2 -43 -6z"/>
<path d="M3412 3102 c-9 -7 -12 -82 -10 -343 l3 -334 235 0 235 0 0 30 0 30
-190 6 c-104 3 -191 6 -193 7 -1 1 -1 53 0 115 l3 112 169 5 c147 4 170 7 180
23 8 12 8 22 0 35 -10 15 -33 18 -180 22 l-169 5 0 105 0 105 185 5 185 5 0
35 0 35 -220 2 c-121 2 -226 -1 -233 -5z"/>
<path d="M2473 2977 c-53 -78 -76 -178 -62 -267 8 -54 46 -150 59 -150 3 0 18
13 33 28 27 28 27 29 11 73 -21 57 -22 153 -1 203 16 35 16 43 1 92 -8 30 -16
54 -17 54 -1 0 -12 -15 -24 -33z"/>
<path d="M2960 2830 c-51 -77 -90 -146 -87 -153 3 -6 18 -20 35 -29 l29 -18
67 105 c37 58 73 105 79 105 6 0 53 -28 105 -62 91 -60 95 -61 109 -43 40 54
42 50 -94 138 -70 46 -133 86 -139 90 -7 4 -47 -46 -104 -133z"/>
<path d="M2741 2911 c-79 -28 -113 -66 -119 -136 -5 -56 -4 -57 16 -46 50 27
122 -29 132 -101 6 -48 15 -50 79 -20 l34 16 -31 24 -31 24 59 88 60 89 -26
30 c-22 26 -76 51 -109 51 -5 -1 -34 -9 -64 -19z"/>
<path d="M3068 2777 c-9 -17 -21 -54 -27 -82 -6 -27 -24 -68 -39 -90 -34 -50
-112 -103 -162 -111 -30 -5 -44 -15 -69 -50 l-31 -44 55 0 c75 0 154 32 216
87 62 56 92 102 113 173 24 82 21 113 -13 133 -28 16 -28 16 -43 -16z"/>
<path d="M2310 2349 l-352 -360 25 -32 c13 -18 30 -44 38 -59 l14 -28 155 141
c201 183 297 260 394 316 103 59 161 113 182 170 18 45 18 46 -5 64 -22 18
-23 17 -59 -19 -21 -21 -56 -51 -77 -67 -78 -58 -192 -151 -315 -259 -169
-148 -190 -164 -101 -78 81 78 304 275 411 364 36 30 78 73 94 95 27 39 27 42
12 65 -9 14 -27 30 -40 36 -23 10 -44 -10 -376 -349z"/>
<path d="M2833 2568 c-21 -10 -33 -48 -15 -48 32 1 52 15 52 36 0 26 -4 28
-37 12z"/>
<path d="M2710 2314 c0 -161 -23 -891 -28 -896 -13 -12 -244 -41 -392 -48
l-145 -7 145 -1 c438 -4 908 136 1275 381 80 54 229 173 311 250 87 81 224
245 224 269 0 31 -28 20 -62 -25 -52 -68 -122 -147 -130 -147 -5 0 -8 56 -8
125 l0 125 -50 0 -50 0 0 -113 c0 -63 -3 -148 -6 -190 l-7 -76 -88 -73 c-49
-40 -124 -96 -166 -126 l-78 -53 -7 53 c-3 29 -7 148 -7 263 -1 116 -4 234 -7
263 l-7 52 -68 0 -69 0 0 -123 c0 -68 -3 -232 -7 -365 l-6 -241 -76 -35 c-96
-43 -290 -111 -297 -103 -6 5 -23 568 -24 774 l0 92 -85 3 -85 3 0 -31z"/>
<path d="M4225 2342 l-120 -4 165 -54 c242 -79 598 -184 626 -184 59 0 -4 46
-145 105 -116 49 -383 145 -395 143 -6 -1 -65 -4 -131 -6z"/>
<path d="M2951 2296 l-44 -45 7 -68 c4 -37 9 -69 11 -71 2 -2 48 33 102 78 54
45 125 97 158 116 l60 34 -125 0 -126 0 -43 -44z"/>
<path d="M3517 2292 c-47 -47 -48 -50 -45 -102 l3 -53 85 73 c47 40 105 85
129 101 l45 29 -85 0 -85 0 -47 -48z"/>
<path d="M4265 2144 c-109 -142 -345 -351 -527 -467 -100 -64 -135 -99 -50
-51 109 63 274 178 367 256 125 105 295 284 295 309 0 37 -35 18 -85 -47z"/>
<path d="M1300 2150 c0 -16 7 -20 35 -20 l35 0 0 -315 0 -315 -35 0 c-28 0
-35 -4 -35 -20 0 -19 7 -20 100 -20 93 0 100 1 100 20 0 16 -7 20 -35 20 l-35
0 0 335 0 335 -65 0 c-58 0 -65 -2 -65 -20z"/>
<path d="M525 2083 c-42 -54 -44 -58 -24 -61 16 -3 39 13 83 57 l61 61 -37 0
c-34 0 -42 -6 -83 -57z"/>
<path d="M4485 2083 c-46 -43 -173 -148 -204 -170 -2 -2 -2 -5 1 -8 6 -7 186
113 250 167 26 22 48 46 48 54 0 28 -36 12 -95 -43z"/>
<path d="M3105 1889 c-109 -111 -136 -144 -121 -147 23 -5 99 48 194 136 71
66 73 69 70 110 l-3 43 -140 -142z"/>
<path d="M2422 1767 c-133 -134 -242 -249 -242 -256 0 -18 45 -6 92 24 20 13
118 97 217 185 l181 162 0 64 c0 35 -1 64 -3 64 -1 0 -112 -109 -245 -243z"/>
<path d="M433 1939 c-151 -75 -166 -354 -25 -453 72 -51 203 -47 275 8 15 12
16 18 8 35 -11 20 -11 20 -47 -4 -39 -26 -109 -41 -146 -30 -76 23 -128 93
-128 173 l0 42 176 0 177 0 -6 60 c-8 69 -23 103 -64 142 -56 53 -146 64 -220
27z m164 -44 c34 -23 63 -74 63 -112 l0 -33 -146 0 -146 0 7 28 c28 116 136
173 222 117z"/>
<path d="M923 1941 c-152 -70 -164 -364 -19 -460 34 -22 50 -26 117 -26 70 0
81 3 120 30 56 39 90 105 96 188 14 172 -73 287 -217 287 -33 0 -72 -8 -97
-19z m136 -27 c39 -8 86 -53 106 -101 9 -21 15 -67 15 -110 0 -130 -61 -208
-162 -206 -80 1 -140 59 -158 153 -21 109 20 216 95 251 44 20 57 22 104 13z"/>
<path d="M1705 1946 c-41 -18 -100 -85 -116 -132 -17 -51 -17 -169 0 -217 44
-127 189 -182 319 -122 30 14 52 31 52 40 0 25 -24 28 -61 7 -130 -74 -269 9
-269 161 l0 27 175 0 175 0 0 44 c0 124 -76 206 -192 206 -29 -1 -66 -7 -83
-14z m141 -42 c39 -19 69 -63 79 -116 l7 -38 -151 0 -151 0 6 28 c20 81 82
139 152 141 13 1 39 -6 58 -15z"/>
<path d="M2701 1267 c-37 -18 -61 -68 -68 -141 -6 -64 -7 -66 -34 -66 -24 0
-29 -4 -29 -25 0 -21 5 -25 30 -25 l30 0 2 -222 c3 -223 3 -223 26 -226 l22
-3 0 225 0 226 45 0 c41 0 45 2 45 25 0 23 -4 25 -45 25 l-45 0 0 44 c0 85 28
126 84 126 21 0 26 5 26 25 0 22 -4 25 -32 25 -18 0 -44 -6 -57 -13z"/>
<path d="M1950 1139 l0 -131 -35 31 c-64 56 -155 37 -197 -42 -21 -38 -23 -56
-23 -182 0 -126 2 -144 23 -182 33 -62 62 -77 144 -74 14 1 40 12 56 26 31 26
42 24 42 -7 0 -11 7 -18 20 -18 20 0 20 7 20 355 l0 355 -25 0 -25 0 0 -131z
m-31 -150 l31 -31 0 -147 0 -147 -31 -30 c-24 -23 -39 -29 -74 -29 -82 0 -109
53 -109 215 0 108 7 134 47 178 32 35 97 31 136 -9z"/>
<path d="M412 1050 c-57 -35 -75 -94 -75 -235 0 -129 16 -188 61 -228 47 -42
140 -38 179 8 l23 26 0 -63 c0 -133 -97 -190 -189 -112 -29 24 -30 24 -40 6
-19 -35 53 -84 125 -84 55 0 102 27 129 72 19 33 20 55 23 328 l3 292 -25 0
c-22 0 -26 -4 -26 -30 l0 -30 -28 31 c-38 42 -110 51 -160 19z m157 -65 l31
-36 0 -139 c0 -134 -1 -139 -26 -169 -48 -58 -128 -49 -167 17 -25 43 -34 176
-17 256 16 76 46 106 105 106 37 0 48 -5 74 -35z"/>
<path d="M834 1051 c-18 -11 -34 -25 -37 -33 -3 -7 -6 -1 -6 15 -1 22 -6 27
-26 27 l-25 0 0 -251 0 -250 23 3 c22 3 22 5 27 195 5 174 7 194 26 220 13 18
35 31 62 37 34 8 42 14 42 33 0 18 -5 23 -27 23 -16 0 -42 -9 -59 -19z"/>
<path d="M1020 1052 c-64 -32 -111 -138 -57 -130 14 2 23 11 25 25 6 40 50 73
99 73 67 0 93 -31 93 -110 l0 -60 -67 0 c-113 0 -172 -45 -180 -137 -8 -84 33
-148 97 -153 58 -5 81 2 114 30 l34 31 7 -31 c5 -22 12 -30 28 -30 22 0 22 0
19 202 -3 142 -8 212 -17 235 -28 66 -121 92 -195 55z m160 -306 c0 -54 -4
-69 -25 -95 -46 -54 -128 -63 -160 -18 -22 32 -19 99 6 131 28 36 52 45 122
45 l57 1 0 -64z"/>
<path d="M1410 1034 l-40 -36 0 31 c0 26 -4 31 -25 31 l-25 0 0 -250 0 -250
25 0 25 0 0 180 c0 193 4 212 53 258 35 33 92 28 121 -11 19 -26 21 -44 24
-228 3 -189 5 -199 23 -199 18 0 19 9 19 206 0 228 -7 262 -61 289 -50 26 -94
19 -139 -21z"/>
<path d="M2154 1054 c-40 -20 -64 -63 -64 -117 0 -58 23 -87 108 -133 92 -51
122 -80 122 -119 0 -95 -158 -112 -191 -21 -10 28 -19 36 -37 36 -21 0 -23 -3
-18 -27 17 -72 73 -114 150 -114 85 0 133 39 142 118 8 62 -20 99 -116 154
-47 26 -92 57 -102 69 -43 54 -1 120 76 120 37 0 48 -5 70 -31 14 -17 26 -37
26 -45 0 -8 9 -14 20 -14 27 0 27 49 -1 84 -43 54 -121 72 -185 40z"/>
<path d="M2935 1058 c-11 -6 -28 -20 -37 -32 l-18 -21 0 28 c0 22 -4 27 -25
27 l-25 0 0 -250 0 -250 25 0 25 0 0 188 c0 169 2 190 20 220 21 34 63 56 92
49 14 -4 18 1 18 24 0 25 -4 29 -27 29 -16 0 -37 -6 -48 -12z"/>
<path d="M3120 1052 c-20 -11 -46 -38 -60 -63 -23 -41 -25 -53 -25 -179 0
-147 10 -180 66 -222 56 -42 159 -40 207 4 42 40 20 72 -26 38 -43 -32 -100
-36 -140 -10 -38 23 -58 64 -68 138 l-7 52 143 0 142 0 -7 68 c-9 88 -35 146
-77 172 -41 25 -102 26 -148 2z m132 -52 c24 -19 48 -83 48 -130 0 -20 -4 -21
-112 -18 l-113 3 3 30 c6 54 23 94 49 115 33 26 92 26 125 0z"/>
<path d="M3472 1053 c-62 -30 -86 -125 -46 -180 11 -15 54 -47 95 -70 118 -68
144 -113 96 -168 -48 -56 -160 -34 -174 35 -4 23 -11 30 -29 30 -29 0 -30 -12
-5 -67 25 -53 67 -76 140 -75 64 0 97 21 125 76 36 73 -2 145 -104 196 -119
60 -149 112 -95 165 47 48 143 23 159 -40 4 -16 13 -25 26 -25 45 0 7 96 -49
125 -39 19 -97 19 -139 -2z"/>
<path d="M3884 1060 c-11 -4 -33 -22 -47 -40 l-27 -32 0 36 c0 32 -3 36 -25
36 l-25 0 0 -250 0 -250 25 0 25 0 0 180 c0 193 4 212 53 258 35 33 92 28 121
-11 19 -26 21 -44 24 -228 3 -189 4 -199 23 -199 18 0 19 9 19 200 0 161 -3
207 -16 240 -24 60 -88 85 -150 60z"/>
<path d="M4209 1047 c-51 -33 -80 -101 -86 -200 -8 -117 10 -190 56 -239 56
-61 154 -70 220 -21 29 23 34 33 22 52 -7 11 -14 10 -40 -8 -43 -31 -91 -37
-133 -17 -45 22 -69 65 -75 137 l-6 59 138 0 138 0 -5 74 c-3 46 -12 88 -24
111 -38 72 -137 97 -205 52z m141 -47 c27 -27 40 -63 40 -111 l0 -39 -110 0
c-107 0 -110 1 -110 23 0 42 20 95 46 121 34 34 103 37 134 6z"/>
<path d="M4563 1050 c-60 -36 -81 -116 -45 -174 10 -18 51 -47 102 -76 98 -54
126 -90 108 -142 -13 -37 -67 -62 -113 -54 -35 7 -71 40 -77 71 -2 12 -13 21
-26 23 -50 7 -10 -93 49 -124 18 -9 53 -16 79 -16 90 0 140 48 140 136 0 59
-29 92 -121 141 -90 47 -109 66 -109 108 0 47 34 77 89 77 47 0 91 -33 91 -70
0 -15 6 -20 25 -20 31 0 33 21 7 69 -36 66 -133 91 -199 51z"/>
</g>
</svg>
