<?xml version="1.0" encoding="UTF-8" standalone="no"?>
<svg
   xmlns:dc="http://purl.org/dc/elements/1.1/"
   xmlns:cc="http://creativecommons.org/ns#"
   xmlns:rdf="http://www.w3.org/1999/02/22-rdf-syntax-ns#"
   xmlns:svg="http://www.w3.org/2000/svg"
   xmlns="http://www.w3.org/2000/svg"
   xmlns:sodipodi="http://sodipodi.sourceforge.net/DTD/sodipodi-0.dtd"
   xmlns:inkscape="http://www.inkscape.org/namespaces/inkscape"
   version="1.1"
   x="0px"
   y="0px"
   viewBox="0 0 90 90"
   enable-background="new 0 0 100 100"
   xml:space="preserve"
   id="svg26"
   sodipodi:docname="wind-turbine.svg"
   inkscape:version="0.92.3 (2405546, 2018-03-11)"
   width="90"
   height="90"><metadata
     id="metadata32"><rdf:RDF><cc:Work
         rdf:about=""><dc:format>image/svg+xml</dc:format><dc:type
           rdf:resource="http://purl.org/dc/dcmitype/StillImage" /><dc:title></dc:title></cc:Work></rdf:RDF></metadata><defs
     id="defs30" /><sodipodi:namedview
     pagecolor="#ffffff"
     bordercolor="#666666"
     borderopacity="1"
     objecttolerance="10"
     gridtolerance="10"
     guidetolerance="10"
     inkscape:pageopacity="0"
     inkscape:pageshadow="2"
     inkscape:window-width="1920"
     inkscape:window-height="1019"
     id="namedview28"
     showgrid="false"
     inkscape:zoom="5.3400704"
     inkscape:cx="18.263165"
     inkscape:cy="26.989887"
     inkscape:window-x="0"
     inkscape:window-y="36"
     inkscape:window-maximized="1"
     inkscape:current-layer="svg26" /><circle
     cx="45"
     cy="45"
     r="3.1140001"
     id="circle2" /><g
     id="g5182"
     transform="translate(14.936315,-22.808945)"><path
       inkscape:connector-curvature="0"
       id="path4"
       d="m 30.015382,71.1515 c -1.858,0 -3.37,-1.512 -3.37,-3.37 0,-1.858 1.512,-3.37 3.37,-3.37 1.858,0 3.369,1.512 3.369,3.37 0,1.858 -1.511,3.37 -3.369,3.37 z m 0,-6.228 c -1.576,0 -2.858,1.282 -2.858,2.858 0,1.576 1.282,2.858 2.858,2.858 1.576,0 2.857,-1.282 2.857,-2.858 10e-4,-1.576 -1.281,-2.858 -2.857,-2.858 z" /><ellipse
       style="stroke-width:1.00000548"
       id="ellipse6"
       ry="3.1570172"
       rx="14.803082"
       cy="30.052763"
       cx="-48.658092"
       transform="rotate(-89.810925)" /><path
       inkscape:connector-curvature="0"
       id="path8"
       d="m 29.845382,63.8165 h -0.003 c -2.216,-0.007 -3.387,-7.77 -3.363,-15.07 0.024,-7.294 1.245,-15.047 3.459,-15.047 1.255,0.004 2.036,2.474 2.471,4.546 0.59,2.815 0.909,6.553 0.896,10.524 -0.024,7.294 -1.245,15.047 -3.46,15.047 z m 0.094,-29.606 c -1.373,0 -2.92,5.97 -2.949,14.538 -0.028,8.573 1.481,14.552 2.853,14.557 l 0.001,0.256 v -0.256 c 1.372,0 2.92,-5.97 2.948,-14.538 0.013,-3.937 -0.301,-7.636 -0.885,-10.417 -0.639,-3.05 -1.435,-4.138 -1.968,-4.14 z" /><ellipse
       id="ellipse10"
       ry="3.158"
       rx="14.803"
       cy="-45.362541"
       cx="-78.071266"
       transform="rotate(-151.09231)" /><path
       inkscape:connector-curvature="0"
       id="path12"
       d="m 57.959382,85.3785 c -2.579,0 -7.758,-1.939 -13.192,-4.941 -3.477,-1.919 -6.588,-4.015 -8.76,-5.9 -1.6,-1.388 -3.378,-3.271 -2.772,-4.368 0.237,-0.431 0.789,-0.65 1.64,-0.65 2.579,0 7.758,1.939 13.193,4.94 3.477,1.92 6.588,4.016 8.76,5.901 1.599,1.388 3.378,3.271 2.771,4.368 -0.238,0.432 -0.79,0.65 -1.64,0.65 z m -23.085,-15.347 c -0.641,0 -1.053,0.133 -1.192,0.385 -0.257,0.466 0.307,1.692 2.66,3.734 2.146,1.862 5.227,3.936 8.673,5.839 5.282,2.917 10.483,4.877 12.944,4.877 0.641,0 1.053,-0.134 1.192,-0.386 0.257,-0.466 -0.307,-1.691 -2.66,-3.733 -2.146,-1.862 -5.226,-3.936 -8.672,-5.839 -5.282,-2.917 -10.485,-4.877 -12.945,-4.877 z" /><ellipse
       style="stroke-width:1.00002539"
       id="ellipse14"
       ry="3.1570804"
       rx="14.804377"
       cy="-72.83532"
       cx="30.170994"
       transform="rotate(147.87376)" /><path
       inkscape:connector-curvature="0"
       id="path16"
       d="m 1.8483826,86.3005 c -0.7069999,0 -1.18399995,-0.189 -1.41899995,-0.563 -1.178,-1.876 4.75599995,-7.016 10.93799935,-10.898 5.413,-3.398 10.697,-5.682 13.149,-5.682 0.707,0 1.185,0.19 1.419,0.563 1.178,1.877 -4.756,7.016 -10.939,10.898 -5.4119996,3.399 -10.6959993,5.682 -13.1479994,5.682 z M 24.517382,69.6695 c -2.364,0 -7.539,2.252 -12.876,5.604 -7.2599993,4.56 -11.50699935,9.031 -10.77699935,10.193 0.16800005,0.267 0.62800005,0.323 0.98500005,0.323 2.363,0 7.5379997,-2.252 12.8759993,-5.604 7.26,-4.559 11.507,-9.03 10.778,-10.192 -0.169,-0.268 -0.629,-0.324 -0.986,-0.324 z" /></g></svg>