<svg xmlns="http://www.w3.org/2000/svg" xml:space="preserve" viewBox="0 0 90 90"><circle cx="45" cy="45" r="3.114"/><g transform="translate(14.9363 -22.809)"><path d="M30.0154 71.1515c-1.858 0-3.37-1.512-3.37-3.37s1.512-3.37 3.37-3.37 3.369 1.512 3.369 3.37-1.511 3.37-3.369 3.37zm0-6.228c-1.576 0-2.858 1.282-2.858 2.858s1.282 2.858 2.858 2.858 2.857-1.282 2.857-2.858c.001-1.576-1.281-2.858-2.857-2.858z"/><ellipse ry="3.157" rx="14.8031" cy="30.0528" cx="-48.6581" transform="rotate(-89.81)"/><path d="M29.8454 63.8165h-.003c-2.216-.007-3.387-7.77-3.363-15.07.024-7.294 1.245-15.047 3.459-15.047 1.255.004 2.036 2.474 2.471 4.546.59 2.815.909 6.553.896 10.524-.024 7.294-1.245 15.047-3.46 15.047zm.094-29.606c-1.373 0-2.92 5.97-2.949 14.538-.028 8.573 1.481 14.552 2.853 14.557l.001.256v-.256c1.372 0 2.92-5.97 2.948-14.538.013-3.937-.301-7.636-.885-10.417-.639-3.05-1.435-4.138-1.968-4.14z"/><ellipse ry="3.158" rx="14.803" cy="-45.3625" cx="-78.0713" transform="rotate(-151.092)"/><path d="M57.9594 85.3785c-2.579 0-7.758-1.939-13.192-4.941-3.477-1.919-6.588-4.015-8.76-5.9-1.6-1.388-3.378-3.271-2.772-4.368.237-.431.789-.65 1.64-.65 2.579 0 7.758 1.939 13.193 4.94 3.477 1.92 6.588 4.016 8.76 5.901 1.599 1.388 3.378 3.271 2.771 4.368-.238.432-.79.65-1.64.65zm-23.085-15.347c-.641 0-1.053.133-1.192.385-.257.466.307 1.692 2.66 3.734 2.146 1.862 5.227 3.936 8.673 5.839 5.282 2.917 10.483 4.877 12.944 4.877.641 0 1.053-.134 1.192-.386.257-.466-.307-1.691-2.66-3.733-2.146-1.862-5.226-3.936-8.672-5.839-5.282-2.917-10.485-4.877-12.945-4.877z"/><ellipse ry="3.1571" rx="14.8044" cy="-72.8353" cx="30.171" transform="rotate(147.874)"/><path d="M1.8484 86.3005c-.707 0-1.184-.189-1.419-.563-1.178-1.876 4.756-7.016 10.938-10.898 5.413-3.398 10.697-5.682 13.149-5.682.707 0 1.185.19 1.419.563 1.178 1.877-4.756 7.016-10.939 10.898-5.412 3.399-10.696 5.682-13.148 5.682zm22.669-16.631c-2.364 0-7.539 2.252-12.876 5.604-7.26 4.56-11.507 9.031-10.777 10.193.168.267.628.323.985.323 2.363 0 7.538-2.252 12.876-5.604 7.26-4.559 11.507-9.03 10.778-10.192-.169-.268-.629-.324-.986-.324z"/></g></svg>