<?xml version="1.0" standalone="no"?>
<!DOCTYPE svg PUBLIC "-//W3C//DTD SVG 20010904//EN"
 "http://www.w3.org/TR/2001/REC-SVG-20010904/DTD/svg10.dtd">
<svg version="1.0" xmlns="http://www.w3.org/2000/svg"
 width="512.000000pt" height="512.000000pt" viewBox="0 0 512.000000 512.000000"
 preserveAspectRatio="xMidYMid meet">
<metadata>
Created by potrace 1.14, written by Peter Selinger 2001-2017
</metadata>
<g transform="translate(0.000000,512.000000) scale(0.100000,-0.100000)"
fill="#000000" stroke="none">
<path d="M2536 4442 c-156 -248 -210 -532 -140 -747 21 -62 67 -158 93 -192
20 -25 20 -25 -2 -59 -15 -23 -30 -34 -47 -34 -56 0 -220 -31 -294 -54 -208
-67 -423 -215 -565 -391 -76 -94 -77 -94 83 -75 388 44 663 152 830 324 46 48
64 60 85 58 15 -2 39 1 53 7 22 8 29 7 41 -12 30 -45 144 -151 216 -199 178
-121 411 -193 685 -213 l98 -8 -12 23 c-23 44 -267 277 -355 339 -174 123
-373 201 -513 201 -61 0 -66 2 -101 38 l-36 37 32 65 c51 102 75 207 76 335 1
119 -10 186 -50 310 -36 112 -124 285 -145 285 -4 0 -19 -17 -32 -38z m59
-428 c38 -161 55 -285 55 -411 l0 -113 -37 3 c-21 1 -50 -1 -64 -5 -26 -8 -27
-6 -33 45 -17 128 -5 401 26 561 14 72 19 64 53 -80z m52 -564 c82 -50 26
-164 -72 -146 -82 16 -96 119 -20 152 41 18 55 17 92 -6z m197 -104 c61 -30
156 -82 211 -117 104 -65 278 -190 289 -207 9 -14 -229 63 -365 117 -114 47
-283 133 -294 151 -3 5 4 24 15 42 11 18 20 41 20 51 0 9 3 17 6 17 4 0 57
-24 118 -54z m-374 13 c0 -11 12 -31 26 -46 14 -14 24 -26 22 -28 -44 -38
-304 -150 -483 -208 -212 -68 -213 -68 -110 8 160 117 347 228 475 281 60 24
70 23 70 -7z"/>
<path d="M2143 4000 c-330 -133 -575 -444 -600 -762 -4 -50 -2 -78 4 -78 6 0
13 34 17 76 8 91 54 236 101 320 71 126 187 251 309 331 39 26 74 52 78 58 4
5 8 7 8 3 0 -4 28 6 63 22 34 17 67 30 74 30 12 0 28 18 21 25 -2 2 -36 -9
-75 -25z"/>
<path d="M2900 4022 c0 -5 30 -21 68 -35 322 -127 554 -415 595 -738 12 -95
27 -119 27 -44 0 75 -29 195 -71 290 -95 218 -305 416 -541 509 -73 29 -78 30
-78 18z"/>
<path d="M2095 3819 c-150 -95 -266 -243 -314 -403 -24 -78 -26 -106 -8 -106
7 0 19 30 29 70 41 172 138 298 339 441 43 30 2 28 -46 -2z"/>
<path d="M3000 3838 c0 -7 17 -23 38 -35 152 -86 292 -275 323 -435 7 -37 17
-58 25 -58 18 0 17 9 -2 84 -42 164 -164 325 -323 427 -50 32 -61 35 -61 17z"/>
<path d="M2566 3198 c-5 -16 -96 -1023 -96 -1055 0 -22 3 -23 100 -23 l100 0
0 58 c0 31 -7 192 -14 357 -8 165 -18 381 -22 480 -4 115 -11 183 -18 187 -18
12 -46 9 -50 -4z"/>
<path d="M1590 2614 c-225 -26 -364 -55 -439 -93 -60 -31 -55 -54 23 -129 43
-41 72 -62 88 -62 14 0 58 11 99 25 110 38 249 73 384 97 94 16 170 21 355 23
283 3 257 1 270 26 17 30 -11 56 -74 68 -157 32 -584 59 -706 45z"/>
<path d="M3180 2610 c-142 -12 -351 -41 -372 -52 -29 -14 -39 -43 -23 -64 12
-18 30 -19 247 -20 302 -1 502 -31 742 -113 50 -17 101 -31 114 -31 32 0 152
115 152 145 0 30 -12 38 -102 69 -172 59 -500 87 -758 66z"/>
<path d="M1970 2430 c-159 -10 -294 -33 -442 -76 -135 -38 -192 -63 -195 -84
-4 -20 99 -128 130 -135 17 -5 48 5 103 33 100 50 246 105 349 130 98 25 278
52 345 52 38 0 55 5 71 21 21 21 21 22 3 39 -24 22 -182 31 -364 20z"/>
<path d="M2914 2432 c-65 -2 -85 -7 -99 -22 -16 -17 -15 -20 4 -39 16 -16 34
-21 72 -21 186 0 485 -77 682 -177 111 -55 126 -53 198 29 41 48 50 64 42 77
-13 21 -203 85 -329 110 -171 35 -377 50 -570 43z"/>
<path d="M2161 2289 c-185 -20 -394 -76 -531 -142 -36 -18 -66 -39 -68 -48 -3
-18 93 -89 121 -89 10 0 55 22 100 50 130 79 294 136 505 176 31 6 40 33 17
50 -21 15 -22 15 -144 3z"/>
<path d="M2846 2287 c-24 -18 -15 -45 16 -51 211 -40 375 -97 505 -176 45 -28
90 -50 100 -50 25 0 123 67 123 85 0 21 -35 41 -145 84 -118 46 -224 75 -355
95 -167 25 -223 28 -244 13z"/>
<path d="M2715 1993 c-173 -39 -396 -149 -494 -245 -89 -86 -111 -151 -75
-219 19 -37 96 -75 174 -86 l53 -8 -62 -39 c-150 -92 -251 -223 -251 -326 0
-166 236 -208 522 -94 93 37 218 105 238 129 17 20 30 19 30 -2 1 -37 39 -102
69 -117 42 -22 148 -21 211 3 189 72 371 321 373 511 1 106 -40 160 -120 160
l-43 0 16 -25 c40 -61 -4 -239 -97 -397 -70 -118 -187 -228 -244 -228 -62 0
69 340 182 469 52 60 73 73 128 80 l40 6 -42 42 c-86 86 -160 79 -260 -23 -78
-79 -145 -194 -180 -304 -32 -104 -64 -138 -191 -203 -213 -110 -448 -141
-468 -61 -30 120 245 317 530 379 l29 6 -59 60 c-66 66 -68 67 -187 44 -90
-17 -204 -20 -241 -5 -35 13 -35 58 0 99 98 117 456 274 591 258 56 -6 69 -18
52 -45 -9 -15 -10 -27 -3 -43 l11 -23 26 26 c31 31 42 67 32 105 -9 38 -73 96
-122 111 -39 12 -127 14 -168 5z"/>
<path d="M3696 1708 c-162 -367 -235 -547 -242 -601 -9 -76 52 -137 139 -137
41 0 92 32 165 103 l52 51 0 -35 c0 -66 63 -119 140 -119 37 0 47 7 125 81 47
45 85 79 85 77 0 -3 -18 -46 -39 -94 -26 -58 -48 -93 -63 -101 -13 -7 -81 -40
-152 -74 -152 -73 -226 -134 -226 -188 0 -28 5 -34 37 -48 70 -29 207 1 321
69 82 50 154 128 201 218 23 44 46 80 50 80 4 0 44 22 87 48 l80 48 15 -31
c10 -18 36 -41 70 -58 50 -27 60 -29 149 -25 82 3 102 8 149 33 31 17 64 45
79 68 38 57 28 146 -33 302 -25 66 -49 143 -52 171 -5 48 -4 53 21 69 19 13
40 16 76 13 28 -3 53 -8 57 -11 3 -4 -4 -33 -17 -64 -35 -91 -35 -104 -3 -135
l28 -27 37 50 c85 116 50 197 -96 221 -112 19 -236 -12 -272 -67 -24 -37 -13
-96 47 -238 80 -188 79 -286 -2 -328 -42 -21 -84 -24 -123 -9 -32 12 -32 31
-1 98 32 69 31 92 -4 126 l-29 27 -28 -42 c-16 -24 -47 -62 -69 -84 -41 -40
-133 -101 -141 -92 -3 2 43 103 101 224 58 121 107 233 108 248 2 24 -7 35
-58 71 -33 24 -62 43 -65 44 -3 0 -44 -87 -90 -192 l-85 -193 -121 -122 c-66
-68 -126 -123 -132 -123 -20 0 -13 68 14 138 15 37 57 132 95 212 65 139 73
160 70 187 -1 11 -112 93 -126 93 -9 0 -116 -230 -160 -345 -32 -82 -49 -110
-94 -158 -68 -72 -147 -131 -162 -122 -17 11 -3 63 55 202 65 157 200 458 255
572 23 47 41 93 41 102 0 10 -28 37 -65 63 -36 25 -67 46 -68 46 -1 0 -60
-131 -131 -292z m325 -882 c-47 -67 -89 -104 -156 -137 -114 -55 -167 -27 -84
45 42 35 257 151 266 142 3 -2 -9 -25 -26 -50z"/>
<path d="M951 1636 c-13 -7 -49 -38 -78 -67 -63 -63 -114 -160 -143 -275 -20
-78 -45 -318 -34 -335 3 -5 33 -9 68 -9 l63 0 6 123 c4 68 9 131 13 140 4 10
17 17 33 17 38 0 160 -61 204 -102 36 -34 37 -37 37 -107 l0 -71 68 0 67 0 -7
137 c-13 261 -89 449 -217 534 -51 33 -48 33 -80 15z m55 -138 c43 -49 94
-167 94 -218 0 -19 -3 -19 -52 9 -29 17 -81 37 -114 47 -60 16 -62 17 -54 44
16 57 72 140 94 140 7 0 21 -10 32 -22z"/>
<path d="M387 1626 c-90 -24 -147 -88 -147 -163 0 -64 21 -98 126 -198 79 -76
94 -95 94 -121 0 -55 -60 -94 -144 -94 l-56 0 0 -50 0 -50 68 0 c140 0 236 55
262 150 23 84 1 120 -163 267 -25 24 -49 54 -53 69 -15 60 45 104 145 104 l61
0 0 50 0 50 -72 -1 c-40 0 -95 -6 -121 -13z"/>
<path d="M1492 1621 c-108 -37 -156 -111 -132 -203 9 -35 30 -61 110 -138 55
-54 101 -107 105 -122 15 -59 -47 -108 -137 -108 -54 0 -57 -1 -63 -30 -4 -16
-3 -39 0 -51 7 -20 12 -21 94 -17 144 7 229 67 239 170 7 75 -17 116 -119 203
-55 46 -91 85 -95 101 -17 68 39 114 139 114 l57 0 0 50 0 50 -72 0 c-44 -1
-94 -8 -126 -19z"/>
</g>
</svg>
