<?xml version="1.0" standalone="no"?>
<!DOCTYPE svg PUBLIC "-//W3C//DTD SVG 20010904//EN"
 "http://www.w3.org/TR/2001/REC-SVG-20010904/DTD/svg10.dtd">
<svg version="1.0" xmlns="http://www.w3.org/2000/svg"
 width="512.000000pt" height="512.000000pt" viewBox="0 0 512.000000 512.000000"
 preserveAspectRatio="xMidYMid meet">
<metadata>
Created by potrace 1.11, written by Peter Selinger 2001-2013
</metadata>
<g transform="translate(0.000000,512.000000) scale(0.100000,-0.100000)"
fill="#000000" stroke="none">
<path d="M1887 5038 c4 -7 8 -15 8 -18 3 -20 20 -56 29 -62 7 -5 7 -8 -3 -8
-11 0 -11 -3 -1 -15 7 -8 9 -15 6 -15 -4 0 -1 -10 6 -22 7 -13 11 -27 10 -32
-2 -4 3 -25 10 -45 7 -20 11 -39 10 -43 -1 -5 3 -8 9 -8 5 0 8 -4 5 -9 -3 -5
1 -27 9 -50 8 -23 11 -41 8 -41 -4 0 -2 -5 5 -12 7 -7 12 -21 12 -32 0 -25 25
-98 31 -92 2 2 4 -5 5 -17 0 -12 4 -35 8 -52 5 -16 10 -42 13 -57 3 -16 8 -28
12 -28 4 0 8 -14 9 -31 1 -18 6 -37 9 -43 4 -6 8 -17 9 -26 4 -21 10 -41 21
-70 6 -14 9 -32 8 -40 -1 -8 1 -17 6 -20 4 -3 9 -17 11 -30 2 -14 7 -31 12
-38 4 -7 5 -16 2 -19 -3 -3 1 -18 10 -34 8 -16 14 -31 14 -34 -1 -36 1 -45 12
-39 6 4 8 3 5 -3 -10 -16 24 -114 36 -106 6 3 7 1 3 -5 -6 -10 20 -90 33 -102
10 -8 52 -83 58 -102 3 -10 9 -18 14 -18 5 0 9 -5 9 -10 0 -6 8 -20 19 -31
l18 -20 36 20 c31 17 60 26 100 30 7 1 3 67 -8 111 -4 14 -8 34 -10 45 -6 43
-38 140 -47 146 -5 3 -9 8 -7 10 7 12 -43 130 -70 162 -8 9 -11 17 -6 17 4 0
2 6 -4 14 -6 7 -33 57 -59 110 -27 53 -51 94 -53 91 -3 -2 -6 5 -6 17 -1 11
-9 28 -17 37 -9 10 -16 23 -16 29 0 6 -13 34 -30 62 -16 28 -30 57 -30 65 0 8
-3 15 -7 15 -5 0 -19 25 -33 55 -14 30 -28 55 -33 55 -4 0 -6 3 -6 8 3 12 -25
72 -33 72 -4 0 -8 9 -8 19 0 11 -3 21 -7 23 -9 3 -43 74 -42 84 0 4 -3 10 -8
13 -5 3 -17 26 -28 51 -11 25 -22 47 -25 50 -3 3 -14 22 -23 43 -10 20 -22 37
-28 37 -6 0 -7 -6 -2 -12z"/>
<path d="M3233 3685 c0 -8 4 -15 9 -15 4 0 8 4 8 9 0 6 -4 12 -8 15 -5 3 -9
-1 -9 -9z"/>
<path d="M3227 3645 c-4 -8 -1 -15 5 -15 7 0 7 -4 1 -12 -5 -7 -9 -36 -9 -65
1 -28 -2 -49 -5 -47 -4 2 -6 -19 -5 -47 l2 -50 -45 7 c-78 11 -122 14 -236 14
-161 0 -158 0 -162 -44 -1 -21 -7 -55 -13 -75 -5 -20 -10 -39 -10 -43 0 -20
276 -89 405 -100 28 -3 30 -5 28 -43 -5 -74 -4 -200 2 -225 3 -14 8 -39 11
-57 5 -28 9 -31 28 -23 12 4 29 4 37 0 20 -12 43 16 46 55 5 65 5 163 0 226
l-5 65 62 -2 c162 -5 692 -21 817 -24 79 -2 85 -4 86 -24 2 -31 11 -111 13
-111 1 0 2 -31 3 -70 2 -38 6 -76 11 -84 6 -9 5 -12 0 -8 -12 7 -11 -134 1
-153 5 -9 4 -11 -3 -6 -8 5 -12 -5 -11 -31 0 -36 -3 -75 -16 -173 -7 -58 -12
-85 -15 -85 -1 0 -3 -11 -4 -25 -2 -21 -8 -50 -22 -112 -1 -5 -2 -9 -4 -10 -1
-2 -3 -11 -6 -20 -6 -25 -9 -37 -23 -88 -7 -25 -13 -47 -14 -50 0 -9 -59 -145
-90 -210 -17 -36 -30 -66 -29 -68 2 -1 -4 -10 -13 -18 -8 -9 -13 -19 -10 -24
3 -4 -2 -10 -10 -14 -8 -3 -15 -10 -15 -16 0 -6 -12 -27 -26 -46 -15 -19 -22
-34 -18 -34 5 0 4 -4 -2 -8 -6 -4 -31 -34 -55 -67 -49 -66 -76 -98 -131 -157
-21 -22 -38 -43 -38 -48 0 -5 -9 -12 -21 -15 -11 -4 -18 -9 -16 -12 6 -5 -41
-53 -51 -53 -5 0 -19 -13 -32 -30 -14 -16 -31 -29 -37 -30 -7 0 -13 -7 -13
-15 0 -9 -6 -12 -15 -9 -11 5 -13 2 -8 -12 4 -12 3 -15 -5 -10 -7 4 -24 -4
-39 -18 -15 -15 -31 -26 -36 -26 -4 0 -5 -5 -2 -10 4 -6 3 -10 -2 -9 -19 3
-32 -3 -64 -31 -19 -16 -40 -30 -46 -30 -7 0 -13 -4 -13 -10 0 -5 -6 -10 -14
-10 -8 0 -21 -6 -28 -13 -13 -13 -25 -20 -133 -77 -56 -29 -135 -98 -135 -118
0 -5 36 4 80 19 44 16 84 29 88 30 45 9 294 127 312 148 3 4 22 15 43 26 21
11 51 31 66 45 16 14 34 26 40 28 6 1 19 10 29 20 37 35 95 82 104 82 4 0 7 6
6 13 -2 6 2 12 7 11 6 0 22 12 37 28 15 15 25 28 24 28 -2 0 18 22 43 48 57
59 115 129 120 145 2 7 13 20 24 30 11 9 17 17 13 17 -4 0 2 10 14 22 19 20
24 33 21 51 0 4 2 6 6 5 5 -2 10 2 12 7 3 6 11 16 18 23 7 8 11 18 8 23 -4 5
-1 9 5 9 6 0 16 12 22 28 7 15 20 39 31 54 10 16 15 32 12 38 -3 5 -1 10 5 10
6 0 21 24 34 53 24 52 30 31 7 -26 -6 -16 -11 -32 -11 -37 0 -4 -7 -21 -15
-36 -8 -16 -15 -36 -15 -45 0 -8 -5 -20 -12 -27 -7 -7 -9 -12 -5 -12 4 0 2
-10 -5 -22 -7 -13 -12 -27 -13 -31 0 -4 -7 -12 -15 -17 -8 -5 -12 -10 -8 -10
4 0 -9 -30 -29 -67 -20 -38 -42 -78 -48 -90 -7 -13 -15 -20 -18 -16 -4 3 -7 0
-7 -8 0 -8 -11 -30 -25 -49 -13 -18 -22 -38 -18 -43 3 -6 2 -8 -3 -5 -5 3 -15
0 -22 -8 -7 -8 -11 -14 -8 -14 6 0 -65 -80 -126 -141 -27 -26 -48 -53 -48 -59
0 -6 -4 -9 -8 -6 -5 3 -15 -3 -24 -12 -19 -22 -51 -48 -112 -92 -26 -19 -56
-43 -67 -52 -10 -10 -20 -17 -21 -16 -2 2 -25 -11 -53 -28 -27 -17 -53 -30
-56 -30 -4 1 -15 -7 -25 -16 -11 -9 -21 -17 -24 -17 -3 0 -32 -12 -65 -27 -33
-15 -64 -26 -70 -25 -5 1 -7 -1 -2 -5 4 -4 18 -10 30 -12 38 -6 42 -7 55 -15
6 -5 12 -5 12 0 0 4 4 4 8 -2 4 -5 16 -18 28 -28 20 -17 23 -17 75 9 30 15 56
30 59 33 3 3 22 15 43 25 20 11 37 23 37 28 0 5 5 6 10 3 6 -3 10 -1 10 4 0 6
6 11 13 11 8 0 22 9 32 20 10 11 22 20 27 20 4 0 16 8 27 18 10 9 31 26 45 37
54 41 191 176 188 186 -1 6 2 7 8 4 7 -4 14 2 17 14 3 12 12 21 19 21 8 0 14
4 14 8 0 8 16 29 52 72 27 30 88 121 88 130 0 6 4 10 9 10 5 0 13 10 17 23 4
12 9 24 13 27 13 11 52 90 44 90 -4 0 -3 4 3 8 21 13 63 111 50 116 -6 2 -3 5
7 5 9 1 16 4 15 9 -3 13 26 97 36 104 6 4 7 10 4 14 -4 3 -1 19 7 34 8 15 12
30 9 33 -3 3 -2 12 2 19 5 7 9 18 10 23 3 13 13 64 19 95 2 14 7 39 11 55 3
17 8 38 11 49 4 14 2 16 -8 10 -11 -6 -11 -4 1 10 11 14 14 57 14 214 -1 209
-5 302 -14 302 -3 0 -6 17 -6 38 0 21 -4 47 -8 58 -5 10 -10 38 -11 61 -2 23
-8 50 -14 61 -6 11 -8 22 -4 25 3 4 1 13 -5 20 -7 8 -9 17 -6 20 3 3 2 12 -2
19 -5 7 -10 18 -11 23 -1 6 -4 17 -6 25 -2 8 -12 42 -22 75 -10 33 -18 68 -17
78 0 9 -3 15 -7 13 -5 -4 -25 47 -37 94 0 3 -12 30 -27 60 -28 60 -29 51 -7
-63 6 -33 9 -62 6 -65 -4 -3 -81 11 -174 32 -92 21 -174 39 -182 41 -8 2 -54
12 -102 24 -48 11 -98 23 -110 25 -13 3 -70 17 -128 31 -58 13 -116 27 -130
30 -14 2 -36 7 -50 10 -14 3 -36 8 -49 11 -34 7 -61 23 -62 37 -1 7 -3 30 -4
52 -2 22 -4 40 -5 40 -1 0 -4 25 -6 55 -7 90 -15 117 -27 85z"/>
<path d="M2482 3480 c-79 -49 -73 -168 10 -206 97 -44 195 38 167 139 -20 73
-113 108 -177 67z"/>
<path d="M2295 3217 c-22 -17 -55 -47 -73 -64 -19 -18 -38 -33 -43 -33 -5 0
-9 -4 -9 -8 0 -4 -19 -28 -42 -52 -23 -25 -98 -128 -167 -230 -68 -102 -129
-188 -135 -192 -6 -4 -8 -8 -4 -8 5 0 -14 -30 -40 -67 -53 -75 -201 -294 -217
-320 -33 -55 -30 -55 -205 -48 -89 3 -183 8 -209 10 -51 4 -38 -10 19 -20 18
-3 36 -8 40 -10 6 -4 46 -13 80 -19 8 -2 35 -9 60 -16 25 -6 56 -14 69 -17 52
-9 54 -16 13 -74 -68 -97 -60 -95 45 9 24 24 47 41 51 38 10 -6 98 -19 127
-19 79 1 80 1 82 37 3 32 1 34 -48 50 -28 9 -58 16 -65 16 -8 0 -14 2 -14 5 0
3 97 101 216 217 396 390 464 459 491 499 14 21 30 39 34 39 5 0 9 6 9 14 0 8
4 16 8 18 9 4 92 146 92 158 0 5 4 11 8 14 5 3 7 -32 6 -77 -2 -45 -6 -216 -8
-380 -2 -164 -7 -301 -9 -304 -3 -3 -2 -15 3 -28 5 -13 6 -25 4 -28 -3 -3 -6
-20 -7 -38 -2 -26 -9 -38 -34 -54 -34 -21 -45 -42 -15 -30 53 22 50 35 46
-212 -2 -125 -6 -363 -9 -528 -3 -165 -6 -307 -5 -315 0 -8 0 -33 -1 -55 -4
-118 -4 -171 -1 -178 2 -4 18 7 35 25 34 34 137 103 167 113 20 6 20 -29 5
640 -13 563 -13 604 -1 613 6 5 36 19 66 32 30 12 78 33 105 45 28 13 75 33
105 46 30 12 72 33 92 46 21 13 42 23 48 23 5 0 10 5 10 10 0 6 4 10 10 10 5
0 28 18 52 40 24 22 38 40 32 40 -6 0 -18 15 -27 34 -15 32 -19 34 -44 26
-102 -31 -154 -60 -333 -188 -69 -50 -126 -89 -128 -87 -2 1 -5 108 -8 236 -4
194 -8 338 -13 516 -1 20 -5 22 -49 16 -58 -6 -134 23 -178 68 -15 16 -33 29
-38 29 -6 0 -29 -15 -51 -33z"/>
<path d="M903 3107 c-23 -46 -43 -107 -35 -107 4 0 2 -4 -4 -8 -10 -7 -50
-134 -57 -179 -2 -12 -6 -26 -10 -29 -4 -4 -7 -20 -7 -35 0 -15 -4 -39 -10
-53 -7 -19 -6 -26 3 -26 7 0 8 -3 2 -8 -12 -8 -12 -10 -20 -92 -3 -35 -8 -67
-11 -72 -3 -4 0 -8 6 -8 6 0 8 -5 3 -12 -10 -17 -11 -168 -1 -174 4 -3 4 -13
-2 -23 -5 -10 -7 -21 -4 -24 3 -3 8 -27 10 -54 2 -26 6 -68 10 -93 3 -25 6
-53 6 -62 -1 -10 3 -20 8 -23 5 -3 7 -12 4 -20 -3 -8 -2 -20 2 -27 5 -7 9 -17
10 -23 10 -57 14 -77 29 -120 10 -27 18 -55 19 -62 1 -7 5 -16 9 -19 4 -4 7
-16 7 -26 0 -10 5 -18 10 -18 6 0 10 -9 10 -20 0 -11 4 -28 9 -38 6 -9 20 -38
32 -64 12 -27 26 -48 31 -48 4 0 7 -3 6 -7 -6 -17 26 -74 37 -69 8 3 11 -2 8
-15 -4 -12 3 -28 19 -42 25 -24 27 -26 35 -57 3 -11 9 -17 14 -14 5 3 9 -4 9
-16 0 -12 5 -18 10 -15 5 3 10 -1 10 -9 0 -9 9 -21 20 -28 11 -7 20 -17 20
-23 1 -15 36 -55 49 -55 6 0 11 -5 11 -11 0 -18 172 -179 183 -172 6 3 7 2 4
-4 -7 -11 73 -73 93 -73 6 0 8 -4 5 -10 -3 -6 1 -10 9 -10 9 0 16 -4 16 -9 0
-5 7 -11 15 -14 11 -5 14 4 12 49 -2 30 0 57 4 60 4 2 5 13 2 23 -3 10 3 31
12 45 10 14 13 26 7 26 -12 0 -198 183 -236 233 -16 21 -35 36 -41 33 -9 -3
-11 2 -7 16 3 14 1 19 -6 14 -8 -5 -12 1 -12 14 0 12 -5 18 -10 15 -6 -3 -10
-1 -10 5 0 10 -43 70 -89 126 -6 7 -7 15 -4 18 4 3 0 6 -7 6 -7 0 -11 3 -7 6
3 4 1 12 -6 20 -29 33 -37 44 -31 44 3 0 2 6 -4 13 -16 21 -91 167 -85 167 3
0 -2 11 -11 25 -9 13 -16 31 -16 40 0 8 -4 15 -8 15 -6 0 -28 57 -38 100 0 3
-4 12 -7 20 -6 14 -38 124 -43 145 -1 6 -5 24 -8 40 -3 17 -8 41 -11 55 -3 14
-7 39 -9 55 -2 17 -6 41 -10 55 -3 14 -8 59 -9 100 -2 42 -7 81 -11 88 -4 7
-3 12 1 12 11 0 9 41 -2 60 -5 7 -4 11 1 8 5 -4 10 28 11 70 0 43 8 120 17
172 9 52 19 111 22 130 3 19 9 40 12 45 4 6 7 17 7 25 0 8 4 21 9 28 4 7 6 15
4 18 -3 2 -9 -6 -15 -19z m287 -1821 c0 -2 -7 -7 -16 -10 -8 -3 -12 -2 -9 4 6
10 25 14 25 6z m251 -183 c-12 -20 -14 -14 -5 12 4 9 9 14 11 11 3 -2 0 -13
-6 -23z"/>
<path d="M3201 2739 c-23 -22 -24 -66 -1 -93 31 -38 105 -14 112 35 10 66 -62
103 -111 58z"/>
<path d="M2217 2640 c-15 -16 -27 -32 -27 -34 0 -2 -40 -45 -89 -97 -49 -51
-87 -98 -84 -104 4 -5 3 -7 -2 -3 -13 12 -92 -79 -134 -154 l-31 -54 32 -19
32 -18 53 59 c29 32 53 65 53 72 0 6 4 12 9 12 5 0 13 10 17 23 4 12 10 24 15
27 4 3 9 12 11 20 3 14 7 20 35 54 6 7 9 17 6 20 -4 3 -1 6 5 6 7 0 12 4 12
10 0 5 20 41 45 80 25 39 45 74 45 78 0 5 9 18 20 30 12 12 17 22 12 22 -5 0
-21 -13 -35 -30z"/>
<path d="M3364 2644 c-3 -13 -14 -29 -23 -34 -14 -8 -12 -13 14 -37 60 -56
122 -90 280 -155 121 -49 129 -53 197 -82 20 -9 83 -35 140 -57 57 -23 115
-47 131 -55 15 -8 27 -11 27 -7 -1 9 -403 278 -409 274 -2 -2 -7 1 -10 6 -26
39 -245 156 -309 166 -28 5 -33 2 -38 -19z"/>
<path d="M3209 2556 c-2 -21 -7 -252 -13 -561 -3 -170 -8 -422 -11 -560 -8
-358 -8 -400 -3 -400 2 0 34 18 71 39 l67 39 -5 236 c-3 130 -7 319 -10 421
-13 507 -17 661 -18 727 l-1 72 -38 -1 c-21 0 -38 -5 -39 -12z"/>
<path d="M1793 2142 c-29 -18 -14 -78 22 -84 41 -8 70 30 52 69 -10 23 -49 31
-74 15z"/>
<path d="M1867 2024 c-3 -3 -21 -7 -39 -9 l-33 -2 -1 -79 c-1 -44 -5 -207 -8
-364 -4 -157 -8 -331 -9 -388 -2 -57 1 -106 6 -109 5 -3 27 -33 48 -66 l40
-61 -5 349 c-3 193 -6 350 -6 350 -1 0 -2 57 -3 128 -1 70 -1 127 1 127 1 0 7
-12 13 -27 5 -15 47 -90 93 -167 45 -78 95 -162 109 -188 15 -26 31 -49 36
-52 5 -3 -27 98 -70 226 -90 266 -141 363 -172 332z"/>
<path d="M1638 1078 c-27 -21 -36 -58 -33 -138 3 -75 8 -111 26 -185 5 -22 11
-48 14 -58 11 -49 69 -165 123 -246 34 -52 177 -203 213 -226 8 -5 51 -34 95
-62 43 -29 84 -53 91 -53 6 0 13 -4 15 -8 3 -9 93 -52 108 -52 5 0 15 10 21
23 15 28 105 133 144 168 97 87 91 82 165 130 137 90 320 166 530 220 159 41
205 57 224 78 15 17 15 20 1 34 -45 46 -250 52 -415 13 -56 -13 -287 -85 -330
-103 -8 -3 -21 -8 -27 -10 -7 -1 -19 -5 -25 -6 -7 -2 -21 -7 -30 -10 -10 -4
-26 -10 -35 -14 -10 -3 -22 -7 -28 -8 -5 -2 -37 -10 -70 -18 -249 -64 -394
-23 -494 140 -17 28 -31 55 -31 60 0 6 -8 28 -17 49 -9 22 -17 44 -19 50 -1 6
-16 41 -34 78 -31 63 -108 156 -129 156 -5 0 -15 2 -23 5 -7 3 -21 0 -30 -7z"/>
<path d="M2695 1016 c-22 -7 -44 -14 -50 -16 -22 -7 -92 -55 -119 -82 -17 -15
-33 -28 -38 -28 -4 0 -8 -7 -8 -15 0 -8 -4 -15 -9 -15 -8 0 -201 -254 -201
-266 0 -3 15 -3 33 0 17 4 45 9 61 11 40 6 126 35 126 43 0 4 14 22 30 41 17
18 30 36 30 40 0 6 34 44 146 164 24 26 44 52 44 57 0 6 5 10 12 10 6 0 8 3 5
6 -3 4 -2 15 3 25 15 28 -16 39 -65 25z"/>
<path d="M2952 1011 c-94 -32 -195 -114 -317 -255 -78 -91 -80 -101 -10 -72
19 8 35 13 35 11 0 -2 19 5 43 15 23 10 53 21 67 23 14 3 41 12 60 20 38 17
221 188 239 224 27 53 -21 67 -117 34z"/>
<path d="M1907 853 c3 -10 9 -22 12 -28 3 -5 6 -16 7 -23 3 -18 40 -93 56
-113 15 -19 91 -38 210 -53 34 -5 38 -2 87 64 69 93 71 100 30 101 -64 2 -144
7 -164 12 -11 3 -40 8 -65 12 -59 9 -123 26 -134 37 -6 4 -18 8 -28 8 -12 0
-16 -5 -11 -17z"/>
</g>
</svg>
